<svg width="294" height="230" viewBox="0 0 294 230" fill="none" xmlns="http://www.w3.org/2000/svg">
<rect x="1.50003" y="1.5" width="291" height="227" fill="#DFCDA7" stroke="#543200" stroke-width="3"/>
<path fill-rule="evenodd" clip-rule="evenodd" d="M3.00003 3H7H7.00003H13H17V23H13V33H7.00003V43H3.00003V3Z" fill="#D3BB87"/>
<path fill-rule="evenodd" clip-rule="evenodd" d="M3 13L3 17L23 17L23 13L33 13L33 7.00017L43 7.00017L43 3.00017L3 3.00017L3 7L3 7.00017L3 13Z" fill="#D3BB87"/>
<path fill-rule="evenodd" clip-rule="evenodd" d="M291 227L287 227L287 227L281 227L277 227L277 207L281 207L281 197L287 197L287 187L291 187L291 227Z" fill="#D3BB87"/>
<path fill-rule="evenodd" clip-rule="evenodd" d="M291 217L291 213L271 213L271 217L261 217L261 223L251 223L251 227L291 227L291 223L291 223L291 217Z" fill="#D3BB87"/>
<path fill-rule="evenodd" clip-rule="evenodd" d="M291 3L291 6.99997L291 7L291 13L291 17L271 17L271 13L261 13L261 7L251 7L251 3L291 3Z" fill="#D3BB87"/>
<path fill-rule="evenodd" clip-rule="evenodd" d="M281 3H277V23H281V33H287V43H291V3H287H287H281Z" fill="#D3BB87"/>
<path fill-rule="evenodd" clip-rule="evenodd" d="M3 227L3 223L3 223L3 217L3 213L23 213L23 217L33 217L33 223L43 223L43 227L3 227Z" fill="#D3BB87"/>
<path fill-rule="evenodd" clip-rule="evenodd" d="M12.9998 227L16.9998 227L16.9998 207L12.9998 207L12.9999 197L7.00002 197L7.00002 187L3.00002 187L3.00002 227L6.99985 227L7.00002 227L12.9998 227Z" fill="#D3BB87"/>
</svg>
