<svg width="937" height="180" viewBox="0 0 937 180" fill="none" xmlns="http://www.w3.org/2000/svg">
<path d="M328.07 111.688H355.141V122H371.449V111.688H386.117V163.562H375.922V173.855H355.043V167.664H344.926V173.855H317.855V122H328.07V111.688ZM332.25 115.887V159.363H350.941V153.172H357.133V146.961H363.246V153.172H369.438V159.363H381.938V115.887H375.648V140.672H369.535V134.48H363.344V128.289H357.055V134.48H350.941V115.887H332.25ZM394.398 111.688H421.469V122H431.586V111.688H446.254V157.352H440.062V163.562H436.039V167.664H429.848V173.855H390.375V167.664H384.184V122H394.398V111.688ZM398.578 115.887V153.172H404.789V159.363H435.863V153.172H442.055V115.887H435.766V146.961H417.27V115.887H398.578ZM454.789 111.609H481.859V142.586H500.453V163.465H489.965V173.758H444.301V121.902H454.789V111.609ZM458.969 115.789V159.266H496.254V146.785H477.66V115.789H458.969ZM509.008 111.688H560.961V132.566H548.559V144.969H536.156V163.562H525.688V173.855H498.52V122H509.008V111.688ZM513.188 115.887V159.363H531.977V140.77H544.359V134.48H531.977V128.367H556.762V115.887H513.188ZM569.242 111.609H621.098V132.469H614.906V138.68H610.883V142.586H621.098V163.465H610.883V173.758H559.027V152.898H565.219V146.688H569.242V142.781H559.027V121.902H569.242V111.609ZM573.422 115.789V128.289H592.016V134.383H585.824V140.594H579.633V146.785H573.422V159.266H616.898V146.785H598.305V140.672H604.516V134.48H610.707V128.289H616.898V115.789H573.422Z" fill="#0D0416"/>
<path d="M532 159.5H513V115.5H557V128.5H532V134.5H544.5V141H532V159.5Z" fill="white"/>
<path d="M617 115.5H573.5V128.5H592V134.5H585.5V140.5H579.5V147H573.5V159.5H617V146.5H598.5V141H604.5V134.5H611V128.5H617V115.5Z" fill="white"/>
<path d="M351 116H332.5H332V159.5H351V153H357V147H363V153H369.5V159.5H382V116H375.5V140.5H369.5V134.5H363.5V128.5H357V134.5H351V116Z" fill="white" stroke="white"/>
<path d="M417.5 116H398.5V153H404.5V159.5H436V153H442.5V116H435.5V147H417.5V116Z" fill="white"/>
<path d="M477.5 116H459V159.5H496.5V146.5H477.5V116Z" fill="white"/>
</svg>
