<svg width="907" height="58" viewBox="0 0 907 58" fill="none" xmlns="http://www.w3.org/2000/svg">
<path d="M0.28125 48H14.6813V43.2H19.4813V38.4H24.2812V33.6H29.0813V38.4H33.8813V43.2H38.6813V48H53.0813V33.6H48.2812V28.8H43.4813V19.2H48.2812V14.4H53.0813V0H38.6813V4.8H33.8813V9.6H29.0813V14.4H24.2812V9.6H19.4813V4.8H14.6813V0H0.28125V14.4H5.08125V19.2H9.88125V28.8H5.08125V33.6H0.28125V48ZM57.8438 48H72.2438V43.2H77.0438V38.4H81.8438V33.6H86.6438V38.4H91.4438V43.2H96.2438V48H110.644V33.6H105.844V28.8H101.044V19.2H105.844V14.4H110.644V0H96.2438V4.8H91.4438V9.6H86.6438V14.4H81.8438V9.6H77.0438V4.8H72.2438V0H57.8438V14.4H62.6438V19.2H67.4438V28.8H62.6438V33.6H57.8438V48ZM115.406 48H129.806V43.2H134.606V38.4H139.406V33.6H144.206V38.4H149.006V43.2H153.806V48H168.206V33.6H163.406V28.8H158.606V19.2H163.406V14.4H168.206V0H153.806V4.8H149.006V9.6H144.206V14.4H139.406V9.6H134.606V4.8H129.806V0H115.406V14.4H120.206V19.2H125.006V28.8H120.206V33.6H115.406V48ZM254.531 43.2H259.331V0H240.131V38.4H225.731V0H206.531V43.2H211.331V48H254.531V43.2ZM283.294 24H288.094V28.8H292.894V33.6H297.694V48H316.894V0H297.694V14.4H292.894V9.6H288.094V4.8H283.294V0H264.094V48H283.294V24ZM321.656 9.6H336.056V38.4H321.656V48H369.656V38.4H355.256V9.6H369.656V0H321.656V9.6ZM393.638 57.6H408.038V48H422.438V43.2H427.238V4.8H422.438V0H379.238V4.8H374.438V43.2H379.238V48H393.638V57.6ZM408.038 9.6V38.4H393.638V9.6H408.038ZM480 43.2H484.8V0H465.6V38.4H451.2V0H432V43.2H436.8V48H480V43.2ZM494.363 48H542.363V38.4H508.763V28.8H523.163V19.2H508.763V9.6H542.363V0H494.363V4.8H489.562V43.2H494.363V48ZM614.288 9.6H628.688V0H580.688V9.6H595.088V48H614.288V9.6ZM652.669 28.8H667.069V48H686.269V28.8H681.469V19.2H686.269V4.8H681.469V0H667.069H652.669H633.469V48H652.669V28.8ZM652.669 9.6H667.069V19.2H652.669V9.6ZM710.231 28.8H724.631V48H743.831V4.8H739.031V0H724.631H695.831V4.8H691.031V48H710.231V28.8ZM710.231 9.6H724.631V19.2H710.231V9.6ZM748.594 9.6H762.994V38.4H748.594V48H796.594V38.4H782.194V9.6H796.594V0H748.594V9.6ZM834.975 9.6H849.375V0H801.375V9.6H815.775V48H834.975V9.6ZM854.156 48H902.156V43.2H906.956V24H902.156V19.2H887.756H873.356V9.6H906.956V0H858.956V4.8H854.156V24H858.956V28.8H887.756V38.4H854.156V48Z" fill="white"/>
<path d="M0.28125 48H-11.7188V60H0.28125V48ZM14.6813 48V60H26.6813V48H14.6813ZM14.6813 43.2V31.2H2.68124V43.2H14.6813ZM19.4813 43.2V55.2H31.4813V43.2H19.4813ZM19.4813 38.4V26.4H7.48126V38.4H19.4813ZM24.2812 38.4V50.4H36.2812V38.4H24.2812ZM24.2812 33.6V21.6H12.2812V33.6H24.2812ZM29.0812 33.6H41.0812V21.6H29.0812V33.6ZM29.0812 38.4H17.0812V50.4H29.0812V38.4ZM33.8812 38.4H45.8812V26.4H33.8812V38.4ZM33.8812 43.2H21.8812V55.2H33.8812V43.2ZM38.6813 43.2H50.6813V31.2H38.6813V43.2ZM38.6813 48H26.6813V60H38.6813V48ZM53.0812 48V60H65.0812V48H53.0812ZM53.0812 33.6H65.0812V21.6H53.0812V33.6ZM48.2812 33.6H36.2812V45.6H48.2812V33.6ZM48.2812 28.8H60.2812V16.8H48.2812V28.8ZM43.4813 28.8H31.4813V40.8H43.4813V28.8ZM43.4813 19.2V7.2H31.4813V19.2H43.4813ZM48.2812 19.2V31.2H60.2812V19.2H48.2812ZM48.2812 14.4V2.4H36.2812V14.4H48.2812ZM53.0812 14.4V26.4H65.0812V14.4H53.0812ZM53.0812 0H65.0812V-12H53.0812V0ZM38.6813 0V-12H26.6813V0H38.6813ZM38.6813 4.8V16.8H50.6813V4.8H38.6813ZM33.8812 4.8V-7.2H21.8812V4.8H33.8812ZM33.8812 9.6V21.6H45.8812V9.6H33.8812ZM29.0812 9.6V-2.4H17.0812V9.6H29.0812ZM29.0812 14.4V26.4H41.0812V14.4H29.0812ZM24.2812 14.4H12.2812V26.4H24.2812V14.4ZM24.2812 9.6H36.2812V-2.4H24.2812V9.6ZM19.4813 9.6H7.48126V21.6H19.4813V9.6ZM19.4813 4.8H31.4813V-7.2H19.4813V4.8ZM14.6813 4.8H2.68124V16.8H14.6813V4.8ZM14.6813 0H26.6813V-12H14.6813V0ZM0.28125 0V-12H-11.7188V0H0.28125ZM0.28125 14.4H-11.7188V26.4H0.28125V14.4ZM5.08124 14.4H17.0812V2.4H5.08124V14.4ZM5.08124 19.2H-6.91876V31.2H5.08124V19.2ZM9.88123 19.2H21.8812V7.2H9.88123V19.2ZM9.88123 28.8V40.8H21.8812V28.8H9.88123ZM5.08124 28.8V16.8H-6.91876V28.8H5.08124ZM5.08124 33.6V45.6H17.0812V33.6H5.08124ZM0.28125 33.6V21.6H-11.7188V33.6H0.28125ZM0.28125 60H14.6813V36H0.28125V60ZM26.6813 48V43.2H2.68124V48H26.6813ZM14.6813 55.2H19.4813V31.2H14.6813V55.2ZM31.4813 43.2V38.4H7.48126V43.2H31.4813ZM19.4813 50.4H24.2812V26.4H19.4813V50.4ZM36.2812 38.4V33.6H12.2812V38.4H36.2812ZM24.2812 45.6H29.0812V21.6H24.2812V45.6ZM17.0812 33.6V38.4H41.0812V33.6H17.0812ZM29.0812 50.4H33.8812V26.4H29.0812V50.4ZM21.8812 38.4V43.2H45.8812V38.4H21.8812ZM33.8812 55.2H38.6813V31.2H33.8812V55.2ZM26.6813 43.2V48H50.6813V43.2H26.6813ZM38.6813 60H53.0812V36H38.6813V60ZM65.0812 48V33.6H41.0812V48H65.0812ZM53.0812 21.6H48.2812V45.6H53.0812V21.6ZM60.2812 33.6V28.8H36.2812V33.6H60.2812ZM48.2812 16.8H43.4813V40.8H48.2812V16.8ZM55.4813 28.8V19.2H31.4813V28.8H55.4813ZM43.4813 31.2H48.2812V7.2H43.4813V31.2ZM60.2812 19.2V14.4H36.2812V19.2H60.2812ZM48.2812 26.4H53.0812V2.4H48.2812V26.4ZM65.0812 14.4V0H41.0812V14.4H65.0812ZM53.0812 -12H38.6813V12H53.0812V-12ZM26.6813 0V4.8H50.6813V0H26.6813ZM38.6813 -7.2H33.8812V16.8H38.6813V-7.2ZM21.8812 4.8V9.6H45.8812V4.8H21.8812ZM33.8812 -2.4H29.0812V21.6H33.8812V-2.4ZM17.0812 9.6V14.4H41.0812V9.6H17.0812ZM29.0812 2.4H24.2812V26.4H29.0812V2.4ZM36.2812 14.4V9.6H12.2812V14.4H36.2812ZM24.2812 -2.4H19.4813V21.6H24.2812V-2.4ZM31.4813 9.6V4.8H7.48126V9.6H31.4813ZM19.4813 -7.2H14.6813V16.8H19.4813V-7.2ZM26.6813 4.8V0H2.68124V4.8H26.6813ZM14.6813 -12H0.28125V12H14.6813V-12ZM-11.7188 0V14.4H12.2812V0H-11.7188ZM0.28125 26.4H5.08124V2.4H0.28125V26.4ZM-6.91876 14.4V19.2H17.0812V14.4H-6.91876ZM5.08124 31.2H9.88123V7.2H5.08124V31.2ZM-2.11874 19.2V28.8H21.8812V19.2H-2.11874ZM9.88123 16.8H5.08124V40.8H9.88123V16.8ZM-6.91876 28.8V33.6H17.0812V28.8H-6.91876ZM5.08124 21.6H0.28125V45.6H5.08124V21.6ZM-11.7188 33.6V48H12.2812V33.6H-11.7188ZM57.8438 48H45.8438V60H57.8438V48ZM72.2438 48V60H84.2438V48H72.2438ZM72.2438 43.2V31.2H60.2438V43.2H72.2438ZM77.0438 43.2V55.2H89.0438V43.2H77.0438ZM77.0438 38.4V26.4H65.0438V38.4H77.0438ZM81.8438 38.4V50.4H93.8438V38.4H81.8438ZM81.8438 33.6V21.6H69.8438V33.6H81.8438ZM86.6437 33.6H98.6437V21.6H86.6437V33.6ZM86.6437 38.4H74.6437V50.4H86.6437V38.4ZM91.4437 38.4H103.444V26.4H91.4437V38.4ZM91.4437 43.2H79.4437V55.2H91.4437V43.2ZM96.2438 43.2H108.244V31.2H96.2438V43.2ZM96.2438 48H84.2438V60H96.2438V48ZM110.644 48V60H122.644V48H110.644ZM110.644 33.6H122.644V21.6H110.644V33.6ZM105.844 33.6H93.8438V45.6H105.844V33.6ZM105.844 28.8H117.844V16.8H105.844V28.8ZM101.044 28.8H89.0438V40.8H101.044V28.8ZM101.044 19.2V7.2H89.0438V19.2H101.044ZM105.844 19.2V31.2H117.844V19.2H105.844ZM105.844 14.4V2.4H93.8438V14.4H105.844ZM110.644 14.4V26.4H122.644V14.4H110.644ZM110.644 0H122.644V-12H110.644V0ZM96.2438 0V-12H84.2438V0H96.2438ZM96.2438 4.8V16.8H108.244V4.8H96.2438ZM91.4437 4.8V-7.2H79.4437V4.8H91.4437ZM91.4437 9.6V21.6H103.444V9.6H91.4437ZM86.6437 9.6V-2.4H74.6437V9.6H86.6437ZM86.6437 14.4V26.4H98.6437V14.4H86.6437ZM81.8438 14.4H69.8438V26.4H81.8438V14.4ZM81.8438 9.6H93.8438V-2.4H81.8438V9.6ZM77.0438 9.6H65.0438V21.6H77.0438V9.6ZM77.0438 4.8H89.0438V-7.2H77.0438V4.8ZM72.2438 4.8H60.2438V16.8H72.2438V4.8ZM72.2438 0H84.2438V-12H72.2438V0ZM57.8438 0V-12H45.8438V0H57.8438ZM57.8438 14.4H45.8438V26.4H57.8438V14.4ZM62.6437 14.4H74.6437V2.4H62.6437V14.4ZM62.6437 19.2H50.6437V31.2H62.6437V19.2ZM67.4437 19.2H79.4437V7.2H67.4437V19.2ZM67.4437 28.8V40.8H79.4437V28.8H67.4437ZM62.6437 28.8V16.8H50.6437V28.8H62.6437ZM62.6437 33.6V45.6H74.6437V33.6H62.6437ZM57.8438 33.6V21.6H45.8438V33.6H57.8438ZM57.8438 60H72.2438V36H57.8438V60ZM84.2438 48V43.2H60.2438V48H84.2438ZM72.2438 55.2H77.0438V31.2H72.2438V55.2ZM89.0438 43.2V38.4H65.0438V43.2H89.0438ZM77.0438 50.4H81.8438V26.4H77.0438V50.4ZM93.8438 38.4V33.6H69.8438V38.4H93.8438ZM81.8438 45.6H86.6437V21.6H81.8438V45.6ZM74.6437 33.6V38.4H98.6437V33.6H74.6437ZM86.6437 50.4H91.4437V26.4H86.6437V50.4ZM79.4437 38.4V43.2H103.444V38.4H79.4437ZM91.4437 55.2H96.2438V31.2H91.4437V55.2ZM84.2438 43.2V48H108.244V43.2H84.2438ZM96.2438 60H110.644V36H96.2438V60ZM122.644 48V33.6H98.6437V48H122.644ZM110.644 21.6H105.844V45.6H110.644V21.6ZM117.844 33.6V28.8H93.8438V33.6H117.844ZM105.844 16.8H101.044V40.8H105.844V16.8ZM113.044 28.8V19.2H89.0438V28.8H113.044ZM101.044 31.2H105.844V7.2H101.044V31.2ZM117.844 19.2V14.4H93.8438V19.2H117.844ZM105.844 26.4H110.644V2.4H105.844V26.4ZM122.644 14.4V0H98.6437V14.4H122.644ZM110.644 -12H96.2438V12H110.644V-12ZM84.2438 0V4.8H108.244V0H84.2438ZM96.2438 -7.2H91.4437V16.8H96.2438V-7.2ZM79.4437 4.8V9.6H103.444V4.8H79.4437ZM91.4437 -2.4H86.6437V21.6H91.4437V-2.4ZM74.6437 9.6V14.4H98.6437V9.6H74.6437ZM86.6437 2.4H81.8438V26.4H86.6437V2.4ZM93.8438 14.4V9.6H69.8438V14.4H93.8438ZM81.8438 -2.4H77.0438V21.6H81.8438V-2.4ZM89.0438 9.6V4.8H65.0438V9.6H89.0438ZM77.0438 -7.2H72.2438V16.8H77.0438V-7.2ZM84.2438 4.8V0H60.2438V4.8H84.2438ZM72.2438 -12H57.8438V12H72.2438V-12ZM45.8438 0V14.4H69.8438V0H45.8438ZM57.8438 26.4H62.6437V2.4H57.8438V26.4ZM50.6437 14.4V19.2H74.6437V14.4H50.6437ZM62.6437 31.2H67.4437V7.2H62.6437V31.2ZM55.4437 19.2V28.8H79.4437V19.2H55.4437ZM67.4437 16.8H62.6437V40.8H67.4437V16.8ZM50.6437 28.8V33.6H74.6437V28.8H50.6437ZM62.6437 21.6H57.8438V45.6H62.6437V21.6ZM45.8438 33.6V48H69.8438V33.6H45.8438ZM115.406 48H103.406V60H115.406V48ZM129.806 48V60H141.806V48H129.806ZM129.806 43.2V31.2H117.806V43.2H129.806ZM134.606 43.2V55.2H146.606V43.2H134.606ZM134.606 38.4V26.4H122.606V38.4H134.606ZM139.406 38.4V50.4H151.406V38.4H139.406ZM139.406 33.6V21.6H127.406V33.6H139.406ZM144.206 33.6H156.206V21.6H144.206V33.6ZM144.206 38.4H132.206V50.4H144.206V38.4ZM149.006 38.4H161.006V26.4H149.006V38.4ZM149.006 43.2H137.006V55.2H149.006V43.2ZM153.806 43.2H165.806V31.2H153.806V43.2ZM153.806 48H141.806V60H153.806V48ZM168.206 48V60H180.206V48H168.206ZM168.206 33.6H180.206V21.6H168.206V33.6ZM163.406 33.6H151.406V45.6H163.406V33.6ZM163.406 28.8H175.406V16.8H163.406V28.8ZM158.606 28.8H146.606V40.8H158.606V28.8ZM158.606 19.2V7.2H146.606V19.2H158.606ZM163.406 19.2V31.2H175.406V19.2H163.406ZM163.406 14.4V2.4H151.406V14.4H163.406ZM168.206 14.4V26.4H180.206V14.4H168.206ZM168.206 0H180.206V-12H168.206V0ZM153.806 0V-12H141.806V0H153.806ZM153.806 4.8V16.8H165.806V4.8H153.806ZM149.006 4.8V-7.2H137.006V4.8H149.006ZM149.006 9.6V21.6H161.006V9.6H149.006ZM144.206 9.6V-2.4H132.206V9.6H144.206ZM144.206 14.4V26.4H156.206V14.4H144.206ZM139.406 14.4H127.406V26.4H139.406V14.4ZM139.406 9.6H151.406V-2.4H139.406V9.6ZM134.606 9.6H122.606V21.6H134.606V9.6ZM134.606 4.8H146.606V-7.2H134.606V4.8ZM129.806 4.8H117.806V16.8H129.806V4.8ZM129.806 0H141.806V-12H129.806V0ZM115.406 0V-12H103.406V0H115.406ZM115.406 14.4H103.406V26.4H115.406V14.4ZM120.206 14.4H132.206V2.4H120.206V14.4ZM120.206 19.2H108.206V31.2H120.206V19.2ZM125.006 19.2H137.006V7.2H125.006V19.2ZM125.006 28.8V40.8H137.006V28.8H125.006ZM120.206 28.8V16.8H108.206V28.8H120.206ZM120.206 33.6V45.6H132.206V33.6H120.206ZM115.406 33.6V21.6H103.406V33.6H115.406ZM115.406 60H129.806V36H115.406V60ZM141.806 48V43.2H117.806V48H141.806ZM129.806 55.2H134.606V31.2H129.806V55.2ZM146.606 43.2V38.4H122.606V43.2H146.606ZM134.606 50.4H139.406V26.4H134.606V50.4ZM151.406 38.4V33.6H127.406V38.4H151.406ZM139.406 45.6H144.206V21.6H139.406V45.6ZM132.206 33.6V38.4H156.206V33.6H132.206ZM144.206 50.4H149.006V26.4H144.206V50.4ZM137.006 38.4V43.2H161.006V38.4H137.006ZM149.006 55.2H153.806V31.2H149.006V55.2ZM141.806 43.2V48H165.806V43.2H141.806ZM153.806 60H168.206V36H153.806V60ZM180.206 48V33.6H156.206V48H180.206ZM168.206 21.6H163.406V45.6H168.206V21.6ZM175.406 33.6V28.8H151.406V33.6H175.406ZM163.406 16.8H158.606V40.8H163.406V16.8ZM170.606 28.8V19.2H146.606V28.8H170.606ZM158.606 31.2H163.406V7.2H158.606V31.2ZM175.406 19.2V14.4H151.406V19.2H175.406ZM163.406 26.4H168.206V2.4H163.406V26.4ZM180.206 14.4V0H156.206V14.4H180.206ZM168.206 -12H153.806V12H168.206V-12ZM141.806 0V4.8H165.806V0H141.806ZM153.806 -7.2H149.006V16.8H153.806V-7.2ZM137.006 4.8V9.6H161.006V4.8H137.006ZM149.006 -2.4H144.206V21.6H149.006V-2.4ZM132.206 9.6V14.4H156.206V9.6H132.206ZM144.206 2.4H139.406V26.4H144.206V2.4ZM151.406 14.4V9.6H127.406V14.4H151.406ZM139.406 -2.4H134.606V21.6H139.406V-2.4ZM146.606 9.6V4.8H122.606V9.6H146.606ZM134.606 -7.2H129.806V16.8H134.606V-7.2ZM141.806 4.8V0H117.806V4.8H141.806ZM129.806 -12H115.406V12H129.806V-12ZM103.406 0V14.4H127.406V0H103.406ZM115.406 26.4H120.206V2.4H115.406V26.4ZM108.206 14.4V19.2H132.206V14.4H108.206ZM120.206 31.2H125.006V7.2H120.206V31.2ZM113.006 19.2V28.8H137.006V19.2H113.006ZM125.006 16.8H120.206V40.8H125.006V16.8ZM108.206 28.8V33.6H132.206V28.8H108.206ZM120.206 21.6H115.406V45.6H120.206V21.6ZM103.406 33.6V48H127.406V33.6H103.406ZM254.531 43.2V31.2H242.531V43.2H254.531ZM259.331 43.2V55.2H271.331V43.2H259.331ZM259.331 0H271.331V-12H259.331V0ZM240.131 0V-12H228.131V0H240.131ZM240.131 38.4V50.4H252.131V38.4H240.131ZM225.731 38.4H213.731V50.4H225.731V38.4ZM225.731 0H237.731V-12H225.731V0ZM206.531 0V-12H194.531V0H206.531ZM206.531 43.2H194.531V55.2H206.531V43.2ZM211.331 43.2H223.331V31.2H211.331V43.2ZM211.331 48H199.331V60H211.331V48ZM254.531 48V60H266.531V48H254.531ZM254.531 55.2H259.331V31.2H254.531V55.2ZM271.331 43.2V0H247.331V43.2H271.331ZM259.331 -12H240.131V12H259.331V-12ZM228.131 0V38.4H252.131V0H228.131ZM240.131 26.4H225.731V50.4H240.131V26.4ZM237.731 38.4V0H213.731V38.4H237.731ZM225.731 -12H206.531V12H225.731V-12ZM194.531 0V43.2H218.531V0H194.531ZM206.531 55.2H211.331V31.2H206.531V55.2ZM199.331 43.2V48H223.331V43.2H199.331ZM211.331 60H254.531V36H211.331V60ZM266.531 48V43.2H242.531V48H266.531ZM283.294 24V12H271.294V24H283.294ZM288.094 24H300.094V12H288.094V24ZM288.094 28.8H276.094V40.8H288.094V28.8ZM292.894 28.8H304.894V16.8H292.894V28.8ZM292.894 33.6H280.894V45.6H292.894V33.6ZM297.694 33.6H309.694V21.6H297.694V33.6ZM297.694 48H285.694V60H297.694V48ZM316.894 48V60H328.894V48H316.894ZM316.894 0H328.894V-12H316.894V0ZM297.694 0V-12H285.694V0H297.694ZM297.694 14.4V26.4H309.694V14.4H297.694ZM292.894 14.4H280.894V26.4H292.894V14.4ZM292.894 9.6H304.894V-2.4H292.894V9.6ZM288.094 9.6H276.094V21.6H288.094V9.6ZM288.094 4.8H300.094V-7.2H288.094V4.8ZM283.294 4.8H271.294V16.8H283.294V4.8ZM283.294 0H295.294V-12H283.294V0ZM264.094 0V-12H252.094V0H264.094ZM264.094 48H252.094V60H264.094V48ZM283.294 48V60H295.294V48H283.294ZM283.294 36H288.094V12H283.294V36ZM276.094 24V28.8H300.094V24H276.094ZM288.094 40.8H292.894V16.8H288.094V40.8ZM280.894 28.8V33.6H304.894V28.8H280.894ZM292.894 45.6H297.694V21.6H292.894V45.6ZM285.694 33.6V48H309.694V33.6H285.694ZM297.694 60H316.894V36H297.694V60ZM328.894 48V0H304.894V48H328.894ZM316.894 -12H297.694V12H316.894V-12ZM285.694 0V14.4H309.694V0H285.694ZM297.694 2.4H292.894V26.4H297.694V2.4ZM304.894 14.4V9.6H280.894V14.4H304.894ZM292.894 -2.4H288.094V21.6H292.894V-2.4ZM300.094 9.6V4.8H276.094V9.6H300.094ZM288.094 -7.2H283.294V16.8H288.094V-7.2ZM295.294 4.8V0H271.294V4.8H295.294ZM283.294 -12H264.094V12H283.294V-12ZM252.094 0V48H276.094V0H252.094ZM264.094 60H283.294V36H264.094V60ZM295.294 48V24H271.294V48H295.294ZM321.656 9.6H309.656V21.6H321.656V9.6ZM336.056 9.6H348.056V-2.4H336.056V9.6ZM336.056 38.4V50.4H348.056V38.4H336.056ZM321.656 38.4V26.4H309.656V38.4H321.656ZM321.656 48H309.656V60H321.656V48ZM369.656 48V60H381.656V48H369.656ZM369.656 38.4H381.656V26.4H369.656V38.4ZM355.256 38.4H343.256V50.4H355.256V38.4ZM355.256 9.6V-2.4H343.256V9.6H355.256ZM369.656 9.6V21.6H381.656V9.6H369.656ZM369.656 0H381.656V-12H369.656V0ZM321.656 0V-12H309.656V0H321.656ZM321.656 21.6H336.056V-2.4H321.656V21.6ZM324.056 9.6V38.4H348.056V9.6H324.056ZM336.056 26.4H321.656V50.4H336.056V26.4ZM309.656 38.4V48H333.656V38.4H309.656ZM321.656 60H369.656V36H321.656V60ZM381.656 48V38.4H357.656V48H381.656ZM369.656 26.4H355.256V50.4H369.656V26.4ZM367.256 38.4V9.6H343.256V38.4H367.256ZM355.256 21.6H369.656V-2.4H355.256V21.6ZM381.656 9.6V0H357.656V9.6H381.656ZM369.656 -12H321.656V12H369.656V-12ZM309.656 0V9.6H333.656V0H309.656ZM393.638 57.6H381.638V69.6H393.638V57.6ZM408.037 57.6V69.6H420.037V57.6H408.037ZM408.037 48V36H396.037V48H408.037ZM422.438 48V60H434.438V48H422.438ZM422.438 43.2V31.2H410.438V43.2H422.438ZM427.237 43.2V55.2H439.237V43.2H427.237ZM427.237 4.8H439.237V-7.2H427.237V4.8ZM422.438 4.8H410.438V16.8H422.438V4.8ZM422.438 0H434.438V-12H422.438V0ZM379.237 0V-12H367.237V0H379.237ZM379.237 4.8V16.8H391.237V4.8H379.237ZM374.438 4.8V-7.2H362.438V4.8H374.438ZM374.438 43.2H362.438V55.2H374.438V43.2ZM379.237 43.2H391.237V31.2H379.237V43.2ZM379.237 48H367.237V60H379.237V48ZM393.638 48H405.638V36H393.638V48ZM408.037 9.6H420.037V-2.4H408.037V9.6ZM408.037 38.4V50.4H420.037V38.4H408.037ZM393.638 38.4H381.638V50.4H393.638V38.4ZM393.638 9.6V-2.4H381.638V9.6H393.638ZM393.638 69.6H408.037V45.6H393.638V69.6ZM420.037 57.6V48H396.037V57.6H420.037ZM408.037 60H422.438V36H408.037V60ZM434.438 48V43.2H410.438V48H434.438ZM422.438 55.2H427.237V31.2H422.438V55.2ZM439.237 43.2V4.8H415.237V43.2H439.237ZM427.237 -7.2H422.438V16.8H427.237V-7.2ZM434.438 4.8V0H410.438V4.8H434.438ZM422.438 -12H379.237V12H422.438V-12ZM367.237 0V4.8H391.237V0H367.237ZM379.237 -7.2H374.438V16.8H379.237V-7.2ZM362.438 4.8V43.2H386.438V4.8H362.438ZM374.438 55.2H379.237V31.2H374.438V55.2ZM367.237 43.2V48H391.237V43.2H367.237ZM379.237 60H393.638V36H379.237V60ZM381.638 48V57.6H405.638V48H381.638ZM396.037 9.6V38.4H420.037V9.6H396.037ZM408.037 26.4H393.638V50.4H408.037V26.4ZM405.638 38.4V9.6H381.638V38.4H405.638ZM393.638 21.6H408.037V-2.4H393.638V21.6ZM480 43.2V31.2H468V43.2H480ZM484.8 43.2V55.2H496.8V43.2H484.8ZM484.8 0H496.8V-12H484.8V0ZM465.6 0V-12H453.6V0H465.6ZM465.6 38.4V50.4H477.6V38.4H465.6ZM451.2 38.4H439.2V50.4H451.2V38.4ZM451.2 0H463.2V-12H451.2V0ZM432 0V-12H420V0H432ZM432 43.2H420V55.2H432V43.2ZM436.8 43.2H448.8V31.2H436.8V43.2ZM436.8 48H424.8V60H436.8V48ZM480 48V60H492V48H480ZM480 55.2H484.8V31.2H480V55.2ZM496.8 43.2V0H472.8V43.2H496.8ZM484.8 -12H465.6V12H484.8V-12ZM453.6 0V38.4H477.6V0H453.6ZM465.6 26.4H451.2V50.4H465.6V26.4ZM463.2 38.4V0H439.2V38.4H463.2ZM451.2 -12H432V12H451.2V-12ZM420 0V43.2H444V0H420ZM432 55.2H436.8V31.2H432V55.2ZM424.8 43.2V48H448.8V43.2H424.8ZM436.8 60H480V36H436.8V60ZM492 48V43.2H468V48H492ZM494.362 48H482.362V60H494.362V48ZM542.363 48V60H554.363V48H542.363ZM542.363 38.4H554.363V26.4H542.363V38.4ZM508.763 38.4H496.763V50.4H508.763V38.4ZM508.763 28.8V16.8H496.763V28.8H508.763ZM523.162 28.8V40.8H535.162V28.8H523.162ZM523.162 19.2H535.162V7.2H523.162V19.2ZM508.763 19.2H496.763V31.2H508.763V19.2ZM508.763 9.6V-2.4H496.763V9.6H508.763ZM542.363 9.6V21.6H554.363V9.6H542.363ZM542.363 0H554.363V-12H542.363V0ZM494.362 0V-12H482.362V0H494.362ZM494.362 4.8V16.8H506.362V4.8H494.362ZM489.562 4.8V-7.2H477.562V4.8H489.562ZM489.562 43.2H477.562V55.2H489.562V43.2ZM494.362 43.2H506.362V31.2H494.362V43.2ZM494.362 60H542.363V36H494.362V60ZM554.363 48V38.4H530.363V48H554.363ZM542.363 26.4H508.763V50.4H542.363V26.4ZM520.762 38.4V28.8H496.763V38.4H520.762ZM508.763 40.8H523.162V16.8H508.763V40.8ZM535.162 28.8V19.2H511.162V28.8H535.162ZM523.162 7.2H508.763V31.2H523.162V7.2ZM520.762 19.2V9.6H496.763V19.2H520.762ZM508.763 21.6H542.363V-2.4H508.763V21.6ZM554.363 9.6V0H530.363V9.6H554.363ZM542.363 -12H494.362V12H542.363V-12ZM482.362 0V4.8H506.362V0H482.362ZM494.362 -7.2H489.562V16.8H494.362V-7.2ZM477.562 4.8V43.2H501.562V4.8H477.562ZM489.562 55.2H494.362V31.2H489.562V55.2ZM482.362 43.2V48H506.362V43.2H482.362ZM614.287 9.6V-2.4H602.287V9.6H614.287ZM628.688 9.6V21.6H640.688V9.6H628.688ZM628.688 0H640.688V-12H628.688V0ZM580.688 0V-12H568.688V0H580.688ZM580.688 9.6H568.688V21.6H580.688V9.6ZM595.088 9.6H607.088V-2.4H595.088V9.6ZM595.088 48H583.088V60H595.088V48ZM614.287 48V60H626.287V48H614.287ZM614.287 21.6H628.688V-2.4H614.287V21.6ZM640.688 9.6V0H616.688V9.6H640.688ZM628.688 -12H580.688V12H628.688V-12ZM568.688 0V9.6H592.688V0H568.688ZM580.688 21.6H595.088V-2.4H580.688V21.6ZM583.088 9.6V48H607.088V9.6H583.088ZM595.088 60H614.287V36H595.088V60ZM626.287 48V9.6H602.287V48H626.287ZM652.669 28.8V16.8H640.669V28.8H652.669ZM667.069 28.8H679.069V16.8H667.069V28.8ZM667.069 48H655.069V60H667.069V48ZM686.269 48V60H698.269V48H686.269ZM686.269 28.8H698.269V16.8H686.269V28.8ZM681.469 28.8H669.469V40.8H681.469V28.8ZM681.469 19.2V7.2H669.469V19.2H681.469ZM686.269 19.2V31.2H698.269V19.2H686.269ZM686.269 4.8H698.269V-7.2H686.269V4.8ZM681.469 4.8H669.469V16.8H681.469V4.8ZM681.469 0H693.469V-12H681.469V0ZM633.469 0V-12H621.469V0H633.469ZM633.469 48H621.469V60H633.469V48ZM652.669 48V60H664.669V48H652.669ZM652.669 9.6V-2.4H640.669V9.6H652.669ZM667.069 9.6H679.069V-2.4H667.069V9.6ZM667.069 19.2V31.2H679.069V19.2H667.069ZM652.669 19.2H640.669V31.2H652.669V19.2ZM652.669 40.8H667.069V16.8H652.669V40.8ZM655.069 28.8V48H679.069V28.8H655.069ZM667.069 60H686.269V36H667.069V60ZM698.269 48V28.8H674.269V48H698.269ZM686.269 16.8H681.469V40.8H686.269V16.8ZM693.469 28.8V19.2H669.469V28.8H693.469ZM681.469 31.2H686.269V7.2H681.469V31.2ZM698.269 19.2V4.8H674.269V19.2H698.269ZM686.269 -7.2H681.469V16.8H686.269V-7.2ZM693.469 4.8V0H669.469V4.8H693.469ZM681.469 -12H667.069V12H681.469V-12ZM667.069 -12H652.669V12H667.069V-12ZM652.669 -12H633.469V12H652.669V-12ZM621.469 0V48H645.469V0H621.469ZM633.469 60H652.669V36H633.469V60ZM664.669 48V28.8H640.669V48H664.669ZM652.669 21.6H667.069V-2.4H652.669V21.6ZM655.069 9.6V19.2H679.069V9.6H655.069ZM667.069 7.2H652.669V31.2H667.069V7.2ZM664.669 19.2V9.6H640.669V19.2H664.669ZM710.231 28.8V16.8H698.231V28.8H710.231ZM724.631 28.8H736.631V16.8H724.631V28.8ZM724.631 48H712.631V60H724.631V48ZM743.831 48V60H755.831V48H743.831ZM743.831 4.8H755.831V-7.2H743.831V4.8ZM739.031 4.8H727.031V16.8H739.031V4.8ZM739.031 0H751.031V-12H739.031V0ZM695.831 0V-12H683.831V0H695.831ZM695.831 4.8V16.8H707.831V4.8H695.831ZM691.031 4.8V-7.2H679.031V4.8H691.031ZM691.031 48H679.031V60H691.031V48ZM710.231 48V60H722.231V48H710.231ZM710.231 9.6V-2.4H698.231V9.6H710.231ZM724.631 9.6H736.631V-2.4H724.631V9.6ZM724.631 19.2V31.2H736.631V19.2H724.631ZM710.231 19.2H698.231V31.2H710.231V19.2ZM710.231 40.8H724.631V16.8H710.231V40.8ZM712.631 28.8V48H736.631V28.8H712.631ZM724.631 60H743.831V36H724.631V60ZM755.831 48V4.8H731.831V48H755.831ZM743.831 -7.2H739.031V16.8H743.831V-7.2ZM751.031 4.8V0H727.031V4.8H751.031ZM739.031 -12H724.631V12H739.031V-12ZM724.631 -12H695.831V12H724.631V-12ZM683.831 0V4.8H707.831V0H683.831ZM695.831 -7.2H691.031V16.8H695.831V-7.2ZM679.031 4.8V48H703.031V4.8H679.031ZM691.031 60H710.231V36H691.031V60ZM722.231 48V28.8H698.231V48H722.231ZM710.231 21.6H724.631V-2.4H710.231V21.6ZM712.631 9.6V19.2H736.631V9.6H712.631ZM724.631 7.2H710.231V31.2H724.631V7.2ZM722.231 19.2V9.6H698.231V19.2H722.231ZM748.594 9.6H736.594V21.6H748.594V9.6ZM762.994 9.6H774.994V-2.4H762.994V9.6ZM762.994 38.4V50.4H774.994V38.4H762.994ZM748.594 38.4V26.4H736.594V38.4H748.594ZM748.594 48H736.594V60H748.594V48ZM796.594 48V60H808.594V48H796.594ZM796.594 38.4H808.594V26.4H796.594V38.4ZM782.194 38.4H770.194V50.4H782.194V38.4ZM782.194 9.6V-2.4H770.194V9.6H782.194ZM796.594 9.6V21.6H808.594V9.6H796.594ZM796.594 0H808.594V-12H796.594V0ZM748.594 0V-12H736.594V0H748.594ZM748.594 21.6H762.994V-2.4H748.594V21.6ZM750.994 9.6V38.4H774.994V9.6H750.994ZM762.994 26.4H748.594V50.4H762.994V26.4ZM736.594 38.4V48H760.594V38.4H736.594ZM748.594 60H796.594V36H748.594V60ZM808.594 48V38.4H784.594V48H808.594ZM796.594 26.4H782.194V50.4H796.594V26.4ZM794.194 38.4V9.6H770.194V38.4H794.194ZM782.194 21.6H796.594V-2.4H782.194V21.6ZM808.594 9.6V0H784.594V9.6H808.594ZM796.594 -12H748.594V12H796.594V-12ZM736.594 0V9.6H760.594V0H736.594ZM834.975 9.6V-2.4H822.975V9.6H834.975ZM849.375 9.6V21.6H861.375V9.6H849.375ZM849.375 0H861.375V-12H849.375V0ZM801.375 0V-12H789.375V0H801.375ZM801.375 9.6H789.375V21.6H801.375V9.6ZM815.775 9.6H827.775V-2.4H815.775V9.6ZM815.775 48H803.775V60H815.775V48ZM834.975 48V60H846.975V48H834.975ZM834.975 21.6H849.375V-2.4H834.975V21.6ZM861.375 9.6V0H837.375V9.6H861.375ZM849.375 -12H801.375V12H849.375V-12ZM789.375 0V9.6H813.375V0H789.375ZM801.375 21.6H815.775V-2.4H801.375V21.6ZM803.775 9.6V48H827.775V9.6H803.775ZM815.775 60H834.975V36H815.775V60ZM846.975 48V9.6H822.975V48H846.975ZM854.156 48H842.156V60H854.156V48ZM902.156 48V60H914.156V48H902.156ZM902.156 43.2V31.2H890.156V43.2H902.156ZM906.956 43.2V55.2H918.956V43.2H906.956ZM906.956 24H918.956V12H906.956V24ZM902.156 24H890.156V36H902.156V24ZM902.156 19.2H914.156V7.2H902.156V19.2ZM873.356 19.2H861.356V31.2H873.356V19.2ZM873.356 9.6V-2.4H861.356V9.6H873.356ZM906.956 9.6V21.6H918.956V9.6H906.956ZM906.956 0H918.956V-12H906.956V0ZM858.956 0V-12H846.956V0H858.956ZM858.956 4.8V16.8H870.956V4.8H858.956ZM854.156 4.8V-7.2H842.156V4.8H854.156ZM854.156 24H842.156V36H854.156V24ZM858.956 24H870.956V12H858.956V24ZM858.956 28.8H846.956V40.8H858.956V28.8ZM887.756 28.8H899.756V16.8H887.756V28.8ZM887.756 38.4V50.4H899.756V38.4H887.756ZM854.156 38.4V26.4H842.156V38.4H854.156ZM854.156 60H902.156V36H854.156V60ZM914.156 48V43.2H890.156V48H914.156ZM902.156 55.2H906.956V31.2H902.156V55.2ZM918.956 43.2V24H894.956V43.2H918.956ZM906.956 12H902.156V36H906.956V12ZM914.156 24V19.2H890.156V24H914.156ZM902.156 7.2H887.756V31.2H902.156V7.2ZM887.756 7.2H873.356V31.2H887.756V7.2ZM885.356 19.2V9.6H861.356V19.2H885.356ZM873.356 21.6H906.956V-2.4H873.356V21.6ZM918.956 9.6V0H894.956V9.6H918.956ZM906.956 -12H858.956V12H906.956V-12ZM846.956 0V4.8H870.956V0H846.956ZM858.956 -7.2H854.156V16.8H858.956V-7.2ZM842.156 4.8V24H866.156V4.8H842.156ZM854.156 36H858.956V12H854.156V36ZM846.956 24V28.8H870.956V24H846.956ZM858.956 40.8H887.756V16.8H858.956V40.8ZM875.756 28.8V38.4H899.756V28.8H875.756ZM887.756 26.4H854.156V50.4H887.756V26.4ZM842.156 38.4V48H866.156V38.4H842.156Z" fill="#0D0416"/>
</svg>
