<svg width="180" height="68" viewBox="0 0 180 68" fill="none" xmlns="http://www.w3.org/2000/svg">
<g filter="url(#filter0_d_10_19)">
<mask id="path-1-inside-1_10_19" fill="white">
<path fill-rule="evenodd" clip-rule="evenodd" d="M8 0H172V8H180V56H172V64H8V56H0V8H8V0Z"/>
</mask>
<path fill-rule="evenodd" clip-rule="evenodd" d="M8 0H172V8H180V56H172V64H8V56H0V8H8V0Z" fill="#0084FF"/>
<path d="M172 0H176V-4H172V0ZM8 0V-4H4V0H8ZM172 8H168V12H172V8ZM180 8H184V4H180V8ZM180 56V60H184V56H180ZM172 56V52H168V56H172ZM172 64V68H176V64H172ZM8 64H4V68H8V64ZM8 56H12V52H8V56ZM0 56H-4V60H0V56ZM0 8V4H-4V8H0ZM8 8V12H12V8H8ZM172 -4H8V4H172V-4ZM176 8V0H168V8H176ZM180 4H172V12H180V4ZM184 56V8H176V56H184ZM172 60H180V52H172V60ZM176 64V56H168V64H176ZM8 68H172V60H8V68ZM4 56V64H12V56H4ZM0 60H8V52H0V60ZM-4 8V56H4V8H-4ZM8 4H0V12H8V4ZM4 0V8H12V0H4Z" fill="#29211B" mask="url(#path-1-inside-1_10_19)"/>
</g>
<path d="M12 4H168V10H12V4Z" fill="#66B5FF"/>
<defs>
<filter id="filter0_d_10_19" x="0" y="0" width="180" height="68" filterUnits="userSpaceOnUse" color-interpolation-filters="sRGB">
<feFlood flood-opacity="0" result="BackgroundImageFix"/>
<feColorMatrix in="SourceAlpha" type="matrix" values="0 0 0 0 0 0 0 0 0 0 0 0 0 0 0 0 0 0 127 0" result="hardAlpha"/>
<feOffset dy="4"/>
<feComposite in2="hardAlpha" operator="out"/>
<feColorMatrix type="matrix" values="0 0 0 0 0 0 0 0 0 0 0 0 0 0 0 0 0 0 0.4 0"/>
<feBlend mode="normal" in2="BackgroundImageFix" result="effect1_dropShadow_10_19"/>
<feBlend mode="normal" in="SourceGraphic" in2="effect1_dropShadow_10_19" result="shape"/>
</filter>
</defs>
</svg>
