<svg width="64" height="64" viewBox="0 0 64 64" fill="none" xmlns="http://www.w3.org/2000/svg">
<mask id="path-1-inside-1_70_51" fill="white">
<path fill-rule="evenodd" clip-rule="evenodd" d="M8 0H56V8H64V56H56V64H8V56H0V8H8V0Z"/>
</mask>
<g filter="url(#filter0_ii_70_51)">
<path fill-rule="evenodd" clip-rule="evenodd" d="M8 0H56V8H64V56H56V64H8V56H0V8H8V0Z" fill="#6B81CC"/>
</g>
<path d="M56 0H60V-4H56V0ZM8 0V-4H4V0H8ZM56 8H52V12H56V8ZM64 8H68V4H64V8ZM64 56V60H68V56H64ZM56 56V52H52V56H56ZM56 64V68H60V64H56ZM8 64H4V68H8V64ZM8 56H12V52H8V56ZM0 56H-4V60H0V56ZM0 8V4H-4V8H0ZM8 8V12H12V8H8ZM56 -4H8V4H56V-4ZM60 8V0H52V8H60ZM64 4H56V12H64V4ZM68 56V8H60V56H68ZM56 60H64V52H56V60ZM60 64V56H52V64H60ZM8 68H56V60H8V68ZM4 56V64H12V56H4ZM0 60H8V52H0V60ZM-4 8V56H4V8H-4ZM8 4H0V12H8V4ZM4 0V8H12V0H4Z" fill="#29211B" mask="url(#path-1-inside-1_70_51)"/>
<path d="M43.7567 21.9906C41.7167 21.0706 39.5301 20.3906 37.2434 20.0039C37.223 20 37.2019 20.0025 37.1831 20.0111C37.1642 20.0197 37.1485 20.034 37.1381 20.0519C36.8581 20.5439 36.5461 21.1853 36.3274 21.6919C33.9022 21.3296 31.4366 21.3296 29.0114 21.6919C28.7678 21.1304 28.4932 20.5829 28.1887 20.0519C28.1784 20.0338 28.1628 20.0192 28.144 20.0101C28.1251 20.0011 28.104 19.998 28.0834 20.0013C25.7981 20.3879 23.6114 21.0679 21.5701 21.9893C21.5525 21.9966 21.5376 22.0092 21.5274 22.0253C17.3781 28.1253 16.2407 34.0746 16.7994 39.9493C16.8009 39.9637 16.8054 39.9776 16.8125 39.9902C16.8196 40.0028 16.8292 40.0138 16.8407 40.0226C19.2626 41.7858 21.9638 43.129 24.8314 43.9959C24.8514 44.0021 24.8728 44.0021 24.8927 43.9959C24.9127 43.9897 24.9304 43.9776 24.9434 43.9613C25.5594 43.1346 26.1087 42.2613 26.5781 41.3439C26.6061 41.2906 26.5794 41.2266 26.5234 41.2053C25.6621 40.8809 24.8275 40.4895 24.0274 40.0346C24.013 40.0264 24.0009 40.0147 23.9921 40.0007C23.9834 39.9867 23.9782 39.9707 23.9772 39.9541C23.9761 39.9376 23.9792 39.9211 23.9861 39.906C23.993 39.891 24.0035 39.8779 24.0167 39.8679C24.1847 39.7439 24.3527 39.6146 24.5127 39.4853C24.5271 39.4736 24.5445 39.4662 24.5628 39.4639C24.5812 39.4615 24.5999 39.4643 24.6167 39.4719C29.8527 41.8239 35.5234 41.8239 40.6981 39.4719C40.715 39.4639 40.7338 39.4607 40.7524 39.4628C40.7711 39.4649 40.7887 39.4723 40.8034 39.4839C40.9634 39.6146 41.1301 39.7439 41.2994 39.8679C41.3127 39.8777 41.3234 39.8906 41.3306 39.9055C41.3377 39.9205 41.341 39.9369 41.3402 39.9534C41.3394 39.9699 41.3345 39.986 41.326 40.0002C41.3175 40.0143 41.3056 40.0262 41.2914 40.0346C40.4941 40.4933 39.6647 40.8813 38.7941 41.2039C38.7807 41.2088 38.7685 41.2164 38.7583 41.2264C38.7481 41.2363 38.7402 41.2483 38.735 41.2616C38.7299 41.2748 38.7276 41.289 38.7283 41.3032C38.7291 41.3174 38.7328 41.3313 38.7394 41.3439C39.2194 42.2599 39.7687 43.1319 40.3727 43.9599C40.3853 43.9769 40.4028 43.9896 40.4228 43.9963C40.4429 44.003 40.4645 44.0033 40.4847 43.9973C43.3572 43.1328 46.0629 41.789 48.4874 40.0226C48.4992 40.0143 48.5091 40.0036 48.5165 39.9912C48.5239 39.9788 48.5285 39.9649 48.5301 39.9506C49.1967 33.1586 47.4127 27.2573 43.7981 22.0279C43.7892 22.0109 43.7745 21.9977 43.7567 21.9906ZM27.3607 36.3719C25.7847 36.3719 24.4847 34.9466 24.4847 33.1986C24.4847 31.4493 25.7594 30.0253 27.3607 30.0253C28.9741 30.0253 30.2621 31.4613 30.2367 33.1986C30.2367 34.9479 28.9621 36.3719 27.3607 36.3719ZM37.9941 36.3719C36.4167 36.3719 35.1181 34.9466 35.1181 33.1986C35.1181 31.4493 36.3914 30.0253 37.9941 30.0253C39.6074 30.0253 40.8954 31.4613 40.8701 33.1986C40.8701 34.9479 39.6087 36.3719 37.9941 36.3719Z" fill="white"/>
<defs>
<filter id="filter0_ii_70_51" x="0" y="0" width="64" height="64" filterUnits="userSpaceOnUse" color-interpolation-filters="sRGB">
<feFlood flood-opacity="0" result="BackgroundImageFix"/>
<feBlend mode="normal" in="SourceGraphic" in2="BackgroundImageFix" result="shape"/>
<feColorMatrix in="SourceAlpha" type="matrix" values="0 0 0 0 0 0 0 0 0 0 0 0 0 0 0 0 0 0 127 0" result="hardAlpha"/>
<feOffset dx="8" dy="8"/>
<feComposite in2="hardAlpha" operator="arithmetic" k2="-1" k3="1"/>
<feColorMatrix type="matrix" values="0 0 0 0 0.568627 0 0 0 0 0.627451 0 0 0 0 0.792157 0 0 0 1 0"/>
<feBlend mode="normal" in2="shape" result="effect1_innerShadow_70_51"/>
<feColorMatrix in="SourceAlpha" type="matrix" values="0 0 0 0 0 0 0 0 0 0 0 0 0 0 0 0 0 0 127 0" result="hardAlpha"/>
<feOffset dx="-8" dy="-8"/>
<feComposite in2="hardAlpha" operator="arithmetic" k2="-1" k3="1"/>
<feColorMatrix type="matrix" values="0 0 0 0 0.321569 0 0 0 0 0.364706 0 0 0 0 0.588235 0 0 0 1 0"/>
<feBlend mode="normal" in2="effect1_innerShadow_70_51" result="effect2_innerShadow_70_51"/>
</filter>
</defs>
</svg>
