<svg width="285" height="116" viewBox="0 0 285 116" fill="none" xmlns="http://www.w3.org/2000/svg">
<g filter="url(#filter0_d_49_523)">
<mask id="path-1-inside-1_49_523" fill="white">
<path fill-rule="evenodd" clip-rule="evenodd" d="M13 0H272V13H285V95H272V108H13V95H0V13H13V0Z"/>
</mask>
<path fill-rule="evenodd" clip-rule="evenodd" d="M13 0H272V13H285V95H272V108H13V95H0V13H13V0Z" fill="#0084FF"/>
<path d="M272 0H280V-8H272V0ZM13 0V-8H5V0H13ZM272 13H264V21H272V13ZM285 13H293V5H285V13ZM285 95V103H293V95H285ZM272 95V87H264V95H272ZM272 108V116H280V108H272ZM13 108H5V116H13V108ZM13 95H21V87H13V95ZM0 95H-8V103H0V95ZM0 13V5H-8V13H0ZM13 13V21H21V13H13ZM272 -8H13V8H272V-8ZM280 13V0H264V13H280ZM285 5H272V21H285V5ZM293 95V13H277V95H293ZM272 103H285V87H272V103ZM280 108V95H264V108H280ZM13 116H272V100H13V116ZM5 95V108H21V95H5ZM0 103H13V87H0V103ZM-8 13V95H8V13H-8ZM13 5H0V21H13V5ZM5 0V13H21V0H5Z" fill="#29211B" mask="url(#path-1-inside-1_49_523)"/>
</g>
<rect x="21" y="8" width="243" height="11" fill="#66B5FF"/>
<path d="M87.9205 56.5H90.0205V58.6H92.1205V60.7H94.2205V58.6H96.3205V56.5H98.4205V67H106.821V46H98.4205V48.1H96.3205V50.2H94.2205V52.3H92.1205V50.2H90.0205V48.1H87.9205V46H79.5205V67H87.9205V56.5ZM108.929 50.2H115.229V62.8H108.929V67H129.929V62.8H123.629V50.2H129.929V46H108.929V50.2ZM140.421 56.5H142.521V58.6H144.621V60.7H146.721V67H155.121V46H146.721V52.3H144.621V50.2H142.521V48.1H140.421V46H132.021V67H140.421V56.5ZM171.904 50.2H178.204V46H157.204V50.2H163.504V67H171.904V50.2ZM194.979 67H203.379V46H194.979V67Z" fill="white"/>
<path d="M87.9205 56.5V50.5H81.9205V56.5H87.9205ZM90.0205 56.5H96.0205V50.5H90.0205V56.5ZM90.0205 58.6H84.0205V64.6H90.0205V58.6ZM92.1205 58.6H98.1205V52.6H92.1205V58.6ZM92.1205 60.7H86.1205V66.7H92.1205V60.7ZM94.2205 60.7V66.7H100.221V60.7H94.2205ZM94.2205 58.6V52.6H88.2205V58.6H94.2205ZM96.3205 58.6V64.6H102.321V58.6H96.3205ZM96.3205 56.5V50.5H90.3205V56.5H96.3205ZM98.4205 56.5H104.421V50.5H98.4205V56.5ZM98.4205 67H92.4205V73H98.4205V67ZM106.821 67V73H112.821V67H106.821ZM106.821 46H112.821V40H106.821V46ZM98.4205 46V40H92.4205V46H98.4205ZM98.4205 48.1V54.1H104.421V48.1H98.4205ZM96.3205 48.1V42.1H90.3205V48.1H96.3205ZM96.3205 50.2V56.2H102.321V50.2H96.3205ZM94.2205 50.2V44.2H88.2205V50.2H94.2205ZM94.2205 52.3V58.3H100.221V52.3H94.2205ZM92.1205 52.3H86.1205V58.3H92.1205V52.3ZM92.1205 50.2H98.1205V44.2H92.1205V50.2ZM90.0205 50.2H84.0205V56.2H90.0205V50.2ZM90.0205 48.1H96.0205V42.1H90.0205V48.1ZM87.9205 48.1H81.9205V54.1H87.9205V48.1ZM87.9205 46H93.9205V40H87.9205V46ZM79.5205 46V40H73.5205V46H79.5205ZM79.5205 67H73.5205V73H79.5205V67ZM87.9205 67V73H93.9205V67H87.9205ZM87.9205 62.5H90.0205V50.5H87.9205V62.5ZM84.0205 56.5V58.6H96.0205V56.5H84.0205ZM90.0205 64.6H92.1205V52.6H90.0205V64.6ZM86.1205 58.6V60.7H98.1205V58.6H86.1205ZM92.1205 66.7H94.2205V54.7H92.1205V66.7ZM100.221 60.7V58.6H88.2205V60.7H100.221ZM94.2205 64.6H96.3205V52.6H94.2205V64.6ZM102.321 58.6V56.5H90.3205V58.6H102.321ZM96.3205 62.5H98.4205V50.5H96.3205V62.5ZM92.4205 56.5V67H104.421V56.5H92.4205ZM98.4205 73H106.821V61H98.4205V73ZM112.821 67V46H100.821V67H112.821ZM106.821 40H98.4205V52H106.821V40ZM92.4205 46V48.1H104.421V46H92.4205ZM98.4205 42.1H96.3205V54.1H98.4205V42.1ZM90.3205 48.1V50.2H102.321V48.1H90.3205ZM96.3205 44.2H94.2205V56.2H96.3205V44.2ZM88.2205 50.2V52.3H100.221V50.2H88.2205ZM94.2205 46.3H92.1205V58.3H94.2205V46.3ZM98.1205 52.3V50.2H86.1205V52.3H98.1205ZM92.1205 44.2H90.0205V56.2H92.1205V44.2ZM96.0205 50.2V48.1H84.0205V50.2H96.0205ZM90.0205 42.1H87.9205V54.1H90.0205V42.1ZM93.9205 48.1V46H81.9205V48.1H93.9205ZM87.9205 40H79.5205V52H87.9205V40ZM73.5205 46V67H85.5205V46H73.5205ZM79.5205 73H87.9205V61H79.5205V73ZM93.9205 67V56.5H81.9205V67H93.9205ZM108.929 50.2H102.929V56.2H108.929V50.2ZM115.229 50.2H121.229V44.2H115.229V50.2ZM115.229 62.8V68.8H121.229V62.8H115.229ZM108.929 62.8V56.8H102.929V62.8H108.929ZM108.929 67H102.929V73H108.929V67ZM129.929 67V73H135.929V67H129.929ZM129.929 62.8H135.929V56.8H129.929V62.8ZM123.629 62.8H117.629V68.8H123.629V62.8ZM123.629 50.2V44.2H117.629V50.2H123.629ZM129.929 50.2V56.2H135.929V50.2H129.929ZM129.929 46H135.929V40H129.929V46ZM108.929 46V40H102.929V46H108.929ZM108.929 56.2H115.229V44.2H108.929V56.2ZM109.229 50.2V62.8H121.229V50.2H109.229ZM115.229 56.8H108.929V68.8H115.229V56.8ZM102.929 62.8V67H114.929V62.8H102.929ZM108.929 73H129.929V61H108.929V73ZM135.929 67V62.8H123.929V67H135.929ZM129.929 56.8H123.629V68.8H129.929V56.8ZM129.629 62.8V50.2H117.629V62.8H129.629ZM123.629 56.2H129.929V44.2H123.629V56.2ZM135.929 50.2V46H123.929V50.2H135.929ZM129.929 40H108.929V52H129.929V40ZM102.929 46V50.2H114.929V46H102.929ZM140.421 56.5V50.5H134.421V56.5H140.421ZM142.521 56.5H148.521V50.5H142.521V56.5ZM142.521 58.6H136.521V64.6H142.521V58.6ZM144.621 58.6H150.621V52.6H144.621V58.6ZM144.621 60.7H138.621V66.7H144.621V60.7ZM146.721 60.7H152.721V54.7H146.721V60.7ZM146.721 67H140.721V73H146.721V67ZM155.121 67V73H161.121V67H155.121ZM155.121 46H161.121V40H155.121V46ZM146.721 46V40H140.721V46H146.721ZM146.721 52.3V58.3H152.721V52.3H146.721ZM144.621 52.3H138.621V58.3H144.621V52.3ZM144.621 50.2H150.621V44.2H144.621V50.2ZM142.521 50.2H136.521V56.2H142.521V50.2ZM142.521 48.1H148.521V42.1H142.521V48.1ZM140.421 48.1H134.421V54.1H140.421V48.1ZM140.421 46H146.421V40H140.421V46ZM132.021 46V40H126.021V46H132.021ZM132.021 67H126.021V73H132.021V67ZM140.421 67V73H146.421V67H140.421ZM140.421 62.5H142.521V50.5H140.421V62.5ZM136.521 56.5V58.6H148.521V56.5H136.521ZM142.521 64.6H144.621V52.6H142.521V64.6ZM138.621 58.6V60.7H150.621V58.6H138.621ZM144.621 66.7H146.721V54.7H144.621V66.7ZM140.721 60.7V67H152.721V60.7H140.721ZM146.721 73H155.121V61H146.721V73ZM161.121 67V46H149.121V67H161.121ZM155.121 40H146.721V52H155.121V40ZM140.721 46V52.3H152.721V46H140.721ZM146.721 46.3H144.621V58.3H146.721V46.3ZM150.621 52.3V50.2H138.621V52.3H150.621ZM144.621 44.2H142.521V56.2H144.621V44.2ZM148.521 50.2V48.1H136.521V50.2H148.521ZM142.521 42.1H140.421V54.1H142.521V42.1ZM146.421 48.1V46H134.421V48.1H146.421ZM140.421 40H132.021V52H140.421V40ZM126.021 46V67H138.021V46H126.021ZM132.021 73H140.421V61H132.021V73ZM146.421 67V56.5H134.421V67H146.421ZM171.904 50.2V44.2H165.904V50.2H171.904ZM178.204 50.2V56.2H184.204V50.2H178.204ZM178.204 46H184.204V40H178.204V46ZM157.204 46V40H151.204V46H157.204ZM157.204 50.2H151.204V56.2H157.204V50.2ZM163.504 50.2H169.504V44.2H163.504V50.2ZM163.504 67H157.504V73H163.504V67ZM171.904 67V73H177.904V67H171.904ZM171.904 56.2H178.204V44.2H171.904V56.2ZM184.204 50.2V46H172.204V50.2H184.204ZM178.204 40H157.204V52H178.204V40ZM151.204 46V50.2H163.204V46H151.204ZM157.204 56.2H163.504V44.2H157.204V56.2ZM157.504 50.2V67H169.504V50.2H157.504ZM163.504 73H171.904V61H163.504V73ZM177.904 67V50.2H165.904V67H177.904ZM194.979 67H188.979V73H194.979V67ZM203.379 67V73H209.379V67H203.379ZM203.379 46H209.379V40H203.379V46ZM194.979 46V40H188.979V46H194.979ZM194.979 73H203.379V61H194.979V73ZM209.379 67V46H197.379V67H209.379ZM203.379 40H194.979V52H203.379V40ZM188.979 46V67H200.979V46H188.979Z" fill="#0D0416"/>
<defs>
<filter id="filter0_d_49_523" x="0" y="0" width="285" height="116" filterUnits="userSpaceOnUse" color-interpolation-filters="sRGB">
<feFlood flood-opacity="0" result="BackgroundImageFix"/>
<feColorMatrix in="SourceAlpha" type="matrix" values="0 0 0 0 0 0 0 0 0 0 0 0 0 0 0 0 0 0 127 0" result="hardAlpha"/>
<feOffset dy="8"/>
<feComposite in2="hardAlpha" operator="out"/>
<feColorMatrix type="matrix" values="0 0 0 0 0 0 0 0 0 0 0 0 0 0 0 0 0 0 0.4 0"/>
<feBlend mode="normal" in2="BackgroundImageFix" result="effect1_dropShadow_49_523"/>
<feBlend mode="normal" in="SourceGraphic" in2="effect1_dropShadow_49_523" result="shape"/>
</filter>
</defs>
</svg>
