<svg width="285" height="116" viewBox="0 0 285 116" fill="none" xmlns="http://www.w3.org/2000/svg">
<g filter="url(#filter0_d_49_532)">
<mask id="path-1-inside-1_49_532" fill="white">
<path fill-rule="evenodd" clip-rule="evenodd" d="M13 0H272V13H285V95H272V108H13V95H0V13H13V0Z"/>
</mask>
<path fill-rule="evenodd" clip-rule="evenodd" d="M13 0H272V13H285V95H272V108H13V95H0V13H13V0Z" fill="#0084FF"/>
<path d="M272 0H280V-8H272V0ZM13 0V-8H5V0H13ZM272 13H264V21H272V13ZM285 13H293V5H285V13ZM285 95V103H293V95H285ZM272 95V87H264V95H272ZM272 108V116H280V108H272ZM13 108H5V116H13V108ZM13 95H21V87H13V95ZM0 95H-8V103H0V95ZM0 13V5H-8V13H0ZM13 13V21H21V13H13ZM272 -8H13V8H272V-8ZM280 13V0H264V13H280ZM285 5H272V21H285V5ZM293 95V13H277V95H293ZM272 103H285V87H272V103ZM280 108V95H264V108H280ZM13 116H272V100H13V116ZM5 95V108H21V95H5ZM0 103H13V87H0V103ZM-8 13V95H8V13H-8ZM13 5H0V21H13V5ZM5 0V13H21V0H5Z" fill="#29211B" mask="url(#path-1-inside-1_49_532)"/>
</g>
<rect x="21" y="8" width="243" height="11" fill="#66B5FF"/>
<path d="M80.5787 56.5H82.6787V58.6H84.7787V60.7H86.8787V58.6H88.9787V56.5H91.0787V67H99.4787V46H91.0787V48.1H88.9787V50.2H86.8787V52.3H84.7787V50.2H82.6787V48.1H80.5787V46H72.1787V67H80.5787V56.5ZM101.587 50.2H107.887V62.8H101.587V67H122.587V62.8H116.287V50.2H122.587V46H101.587V50.2ZM133.079 56.5H135.179V58.6H137.279V60.7H139.379V67H147.779V46H139.379V52.3H137.279V50.2H135.179V48.1H133.079V46H124.679V67H133.079V56.5ZM164.562 50.2H170.862V46H149.862V50.2H156.162V67H164.562V50.2ZM196.038 58.6H208.638V56.5H210.738V48.1H208.638V46H187.638V50.2H202.338V54.4H196.038H189.738V56.5H187.638V67H210.738V62.8H196.038V58.6Z" fill="white"/>
<path d="M80.5787 56.5V50.5H74.5787V56.5H80.5787ZM82.6787 56.5H88.6787V50.5H82.6787V56.5ZM82.6787 58.6H76.6787V64.6H82.6787V58.6ZM84.7787 58.6H90.7787V52.6H84.7787V58.6ZM84.7787 60.7H78.7787V66.7H84.7787V60.7ZM86.8787 60.7V66.7H92.8787V60.7H86.8787ZM86.8787 58.6V52.6H80.8787V58.6H86.8787ZM88.9787 58.6V64.6H94.9787V58.6H88.9787ZM88.9787 56.5V50.5H82.9787V56.5H88.9787ZM91.0787 56.5H97.0787V50.5H91.0787V56.5ZM91.0787 67H85.0787V73H91.0787V67ZM99.4787 67V73H105.479V67H99.4787ZM99.4787 46H105.479V40H99.4787V46ZM91.0787 46V40H85.0787V46H91.0787ZM91.0787 48.1V54.1H97.0787V48.1H91.0787ZM88.9787 48.1V42.1H82.9787V48.1H88.9787ZM88.9787 50.2V56.2H94.9787V50.2H88.9787ZM86.8787 50.2V44.2H80.8787V50.2H86.8787ZM86.8787 52.3V58.3H92.8787V52.3H86.8787ZM84.7787 52.3H78.7787V58.3H84.7787V52.3ZM84.7787 50.2H90.7787V44.2H84.7787V50.2ZM82.6787 50.2H76.6787V56.2H82.6787V50.2ZM82.6787 48.1H88.6787V42.1H82.6787V48.1ZM80.5787 48.1H74.5787V54.1H80.5787V48.1ZM80.5787 46H86.5787V40H80.5787V46ZM72.1787 46V40H66.1787V46H72.1787ZM72.1787 67H66.1787V73H72.1787V67ZM80.5787 67V73H86.5787V67H80.5787ZM80.5787 62.5H82.6787V50.5H80.5787V62.5ZM76.6787 56.5V58.6H88.6787V56.5H76.6787ZM82.6787 64.6H84.7787V52.6H82.6787V64.6ZM78.7787 58.6V60.7H90.7787V58.6H78.7787ZM84.7787 66.7H86.8787V54.7H84.7787V66.7ZM92.8787 60.7V58.6H80.8787V60.7H92.8787ZM86.8787 64.6H88.9787V52.6H86.8787V64.6ZM94.9787 58.6V56.5H82.9787V58.6H94.9787ZM88.9787 62.5H91.0787V50.5H88.9787V62.5ZM85.0787 56.5V67H97.0787V56.5H85.0787ZM91.0787 73H99.4787V61H91.0787V73ZM105.479 67V46H93.4787V67H105.479ZM99.4787 40H91.0787V52H99.4787V40ZM85.0787 46V48.1H97.0787V46H85.0787ZM91.0787 42.1H88.9787V54.1H91.0787V42.1ZM82.9787 48.1V50.2H94.9787V48.1H82.9787ZM88.9787 44.2H86.8787V56.2H88.9787V44.2ZM80.8787 50.2V52.3H92.8787V50.2H80.8787ZM86.8787 46.3H84.7787V58.3H86.8787V46.3ZM90.7787 52.3V50.2H78.7787V52.3H90.7787ZM84.7787 44.2H82.6787V56.2H84.7787V44.2ZM88.6787 50.2V48.1H76.6787V50.2H88.6787ZM82.6787 42.1H80.5787V54.1H82.6787V42.1ZM86.5787 48.1V46H74.5787V48.1H86.5787ZM80.5787 40H72.1787V52H80.5787V40ZM66.1787 46V67H78.1787V46H66.1787ZM72.1787 73H80.5787V61H72.1787V73ZM86.5787 67V56.5H74.5787V67H86.5787ZM101.587 50.2H95.5869V56.2H101.587V50.2ZM107.887 50.2H113.887V44.2H107.887V50.2ZM107.887 62.8V68.8H113.887V62.8H107.887ZM101.587 62.8V56.8H95.5869V62.8H101.587ZM101.587 67H95.5869V73H101.587V67ZM122.587 67V73H128.587V67H122.587ZM122.587 62.8H128.587V56.8H122.587V62.8ZM116.287 62.8H110.287V68.8H116.287V62.8ZM116.287 50.2V44.2H110.287V50.2H116.287ZM122.587 50.2V56.2H128.587V50.2H122.587ZM122.587 46H128.587V40H122.587V46ZM101.587 46V40H95.5869V46H101.587ZM101.587 56.2H107.887V44.2H101.587V56.2ZM101.887 50.2V62.8H113.887V50.2H101.887ZM107.887 56.8H101.587V68.8H107.887V56.8ZM95.5869 62.8V67H107.587V62.8H95.5869ZM101.587 73H122.587V61H101.587V73ZM128.587 67V62.8H116.587V67H128.587ZM122.587 56.8H116.287V68.8H122.587V56.8ZM122.287 62.8V50.2H110.287V62.8H122.287ZM116.287 56.2H122.587V44.2H116.287V56.2ZM128.587 50.2V46H116.587V50.2H128.587ZM122.587 40H101.587V52H122.587V40ZM95.5869 46V50.2H107.587V46H95.5869ZM133.079 56.5V50.5H127.079V56.5H133.079ZM135.179 56.5H141.179V50.5H135.179V56.5ZM135.179 58.6H129.179V64.6H135.179V58.6ZM137.279 58.6H143.279V52.6H137.279V58.6ZM137.279 60.7H131.279V66.7H137.279V60.7ZM139.379 60.7H145.379V54.7H139.379V60.7ZM139.379 67H133.379V73H139.379V67ZM147.779 67V73H153.779V67H147.779ZM147.779 46H153.779V40H147.779V46ZM139.379 46V40H133.379V46H139.379ZM139.379 52.3V58.3H145.379V52.3H139.379ZM137.279 52.3H131.279V58.3H137.279V52.3ZM137.279 50.2H143.279V44.2H137.279V50.2ZM135.179 50.2H129.179V56.2H135.179V50.2ZM135.179 48.1H141.179V42.1H135.179V48.1ZM133.079 48.1H127.079V54.1H133.079V48.1ZM133.079 46H139.079V40H133.079V46ZM124.679 46V40H118.679V46H124.679ZM124.679 67H118.679V73H124.679V67ZM133.079 67V73H139.079V67H133.079ZM133.079 62.5H135.179V50.5H133.079V62.5ZM129.179 56.5V58.6H141.179V56.5H129.179ZM135.179 64.6H137.279V52.6H135.179V64.6ZM131.279 58.6V60.7H143.279V58.6H131.279ZM137.279 66.7H139.379V54.7H137.279V66.7ZM133.379 60.7V67H145.379V60.7H133.379ZM139.379 73H147.779V61H139.379V73ZM153.779 67V46H141.779V67H153.779ZM147.779 40H139.379V52H147.779V40ZM133.379 46V52.3H145.379V46H133.379ZM139.379 46.3H137.279V58.3H139.379V46.3ZM143.279 52.3V50.2H131.279V52.3H143.279ZM137.279 44.2H135.179V56.2H137.279V44.2ZM141.179 50.2V48.1H129.179V50.2H141.179ZM135.179 42.1H133.079V54.1H135.179V42.1ZM139.079 48.1V46H127.079V48.1H139.079ZM133.079 40H124.679V52H133.079V40ZM118.679 46V67H130.679V46H118.679ZM124.679 73H133.079V61H124.679V73ZM139.079 67V56.5H127.079V67H139.079ZM164.562 50.2V44.2H158.562V50.2H164.562ZM170.862 50.2V56.2H176.862V50.2H170.862ZM170.862 46H176.862V40H170.862V46ZM149.862 46V40H143.862V46H149.862ZM149.862 50.2H143.862V56.2H149.862V50.2ZM156.162 50.2H162.162V44.2H156.162V50.2ZM156.162 67H150.162V73H156.162V67ZM164.562 67V73H170.562V67H164.562ZM164.562 56.2H170.862V44.2H164.562V56.2ZM176.862 50.2V46H164.862V50.2H176.862ZM170.862 40H149.862V52H170.862V40ZM143.862 46V50.2H155.862V46H143.862ZM149.862 56.2H156.162V44.2H149.862V56.2ZM150.162 50.2V67H162.162V50.2H150.162ZM156.162 73H164.562V61H156.162V73ZM170.562 67V50.2H158.562V67H170.562ZM196.038 58.6V52.6H190.038V58.6H196.038ZM208.638 58.6V64.6H214.638V58.6H208.638ZM208.638 56.5V50.5H202.638V56.5H208.638ZM210.738 56.5V62.5H216.738V56.5H210.738ZM210.738 48.1H216.738V42.1H210.738V48.1ZM208.638 48.1H202.638V54.1H208.638V48.1ZM208.638 46H214.638V40H208.638V46ZM187.638 46V40H181.638V46H187.638ZM187.638 50.2H181.638V56.2H187.638V50.2ZM202.338 50.2H208.338V44.2H202.338V50.2ZM202.338 54.4V60.4H208.338V54.4H202.338ZM189.738 54.4V48.4H183.738V54.4H189.738ZM189.738 56.5V62.5H195.738V56.5H189.738ZM187.638 56.5V50.5H181.638V56.5H187.638ZM187.638 67H181.638V73H187.638V67ZM210.738 67V73H216.738V67H210.738ZM210.738 62.8H216.738V56.8H210.738V62.8ZM196.038 62.8H190.038V68.8H196.038V62.8ZM196.038 64.6H208.638V52.6H196.038V64.6ZM214.638 58.6V56.5H202.638V58.6H214.638ZM208.638 62.5H210.738V50.5H208.638V62.5ZM216.738 56.5V48.1H204.738V56.5H216.738ZM210.738 42.1H208.638V54.1H210.738V42.1ZM214.638 48.1V46H202.638V48.1H214.638ZM208.638 40H187.638V52H208.638V40ZM181.638 46V50.2H193.638V46H181.638ZM187.638 56.2H202.338V44.2H187.638V56.2ZM196.338 50.2V54.4H208.338V50.2H196.338ZM202.338 48.4H196.038V60.4H202.338V48.4ZM196.038 48.4H189.738V60.4H196.038V48.4ZM183.738 54.4V56.5H195.738V54.4H183.738ZM189.738 50.5H187.638V62.5H189.738V50.5ZM181.638 56.5V67H193.638V56.5H181.638ZM187.638 73H210.738V61H187.638V73ZM216.738 67V62.8H204.738V67H216.738ZM210.738 56.8H196.038V68.8H210.738V56.8ZM202.038 62.8V58.6H190.038V62.8H202.038Z" fill="#0D0416"/>
<defs>
<filter id="filter0_d_49_532" x="0" y="0" width="285" height="116" filterUnits="userSpaceOnUse" color-interpolation-filters="sRGB">
<feFlood flood-opacity="0" result="BackgroundImageFix"/>
<feColorMatrix in="SourceAlpha" type="matrix" values="0 0 0 0 0 0 0 0 0 0 0 0 0 0 0 0 0 0 127 0" result="hardAlpha"/>
<feOffset dy="8"/>
<feComposite in2="hardAlpha" operator="out"/>
<feColorMatrix type="matrix" values="0 0 0 0 0 0 0 0 0 0 0 0 0 0 0 0 0 0 0.4 0"/>
<feBlend mode="normal" in2="BackgroundImageFix" result="effect1_dropShadow_49_532"/>
<feBlend mode="normal" in="SourceGraphic" in2="effect1_dropShadow_49_532" result="shape"/>
</filter>
</defs>
</svg>
