<svg width="64" height="64" viewBox="0 0 64 64" fill="none" xmlns="http://www.w3.org/2000/svg">
<mask id="path-1-inside-1_70_47" fill="white">
<path fill-rule="evenodd" clip-rule="evenodd" d="M8 0H56V8H64V56H56V64H8V56H0V8H8V0Z"/>
</mask>
<g filter="url(#filter0_ii_70_47)">
<path fill-rule="evenodd" clip-rule="evenodd" d="M8 0H56V8H64V56H56V64H8V56H0V8H8V0Z" fill="#2081E2"/>
</g>
<path d="M56 0H60V-4H56V0ZM8 0V-4H4V0H8ZM56 8H52V12H56V8ZM64 8H68V4H64V8ZM64 56V60H68V56H64ZM56 56V52H52V56H56ZM56 64V68H60V64H56ZM8 64H4V68H8V64ZM8 56H12V52H8V56ZM0 56H-4V60H0V56ZM0 8V4H-4V8H0ZM8 8V12H12V8H8ZM56 -4H8V4H56V-4ZM60 8V0H52V8H60ZM64 4H56V12H64V4ZM68 56V8H60V56H68ZM56 60H64V52H56V60ZM60 64V56H52V64H60ZM8 68H56V60H8V68ZM4 56V64H12V56H4ZM0 60H8V52H0V60ZM-4 8V56H4V8H-4ZM8 4H0V12H8V4ZM4 0V8H12V0H4Z" fill="#29211B" mask="url(#path-1-inside-1_70_47)"/>
<path d="M20.547 33.7044L20.638 33.5577L26.124 24.7555C26.2042 24.6266 26.3927 24.64 26.4534 24.78C27.3698 26.8867 28.1607 29.5067 27.7902 31.1378C27.632 31.8088 27.1987 32.7178 26.7112 33.5577C26.6484 33.68 26.579 33.8 26.5053 33.9155C26.4707 33.9689 26.4122 34 26.3493 34H20.7074C20.5557 34 20.4669 33.8311 20.547 33.7044Z" fill="white"/>
<path d="M45 35.34V36.7333C45 36.8133 44.9523 36.8845 44.883 36.9155C44.4584 37.1022 43.0045 37.7867 42.4 38.6489C40.8573 40.8511 39.6787 44 37.044 44H26.0525C22.1568 44 19 40.7511 19 36.7422V36.6133C19 36.5067 19.0845 36.42 19.1885 36.42H25.3158C25.4372 36.42 25.526 36.5355 25.5152 36.6578C25.4718 37.0667 25.5455 37.4845 25.734 37.8645C26.098 38.6222 26.852 39.0956 27.6667 39.0956H30.7V36.6667H27.7013C27.5475 36.6667 27.4565 36.4845 27.5453 36.3555C27.5778 36.3044 27.6147 36.2511 27.6537 36.1911C27.9375 35.7778 28.3427 35.1355 28.7456 34.4044C29.0208 33.9111 29.2873 33.3844 29.5018 32.8556C29.5452 32.76 29.5798 32.6622 29.6145 32.5666C29.673 32.3978 29.7337 32.24 29.777 32.0822C29.8203 31.9489 29.855 31.8089 29.8897 31.6778C29.9915 31.2289 30.0348 30.7533 30.0348 30.26C30.0348 30.0667 30.0261 29.8645 30.0088 29.6711C30.0002 29.46 29.9742 29.2489 29.9482 29.0378C29.9308 28.8511 29.8984 28.6667 29.8637 28.4733C29.8203 28.1911 29.7597 27.9111 29.6903 27.6289L29.6665 27.5222C29.6145 27.3289 29.5711 27.1444 29.5105 26.9511C29.3393 26.3444 29.1422 25.7533 28.9342 25.2C28.8583 24.98 28.7717 24.7689 28.685 24.5578C28.5572 24.24 28.4272 23.9511 28.308 23.6778C28.2473 23.5533 28.1953 23.44 28.1433 23.3244C28.0848 23.1933 28.0242 23.0622 27.9635 22.9378C27.9202 22.8422 27.8703 22.7533 27.8356 22.6645L27.4652 21.9622C27.4132 21.8667 27.4998 21.7533 27.6017 21.7822L29.92 22.4267H29.9265C29.9308 22.4267 29.933 22.4289 29.9352 22.4289L30.2406 22.5155L30.5765 22.6133L30.7 22.6489V21.2356C30.7 20.5533 31.233 20 31.8917 20C32.221 20 32.52 20.1378 32.7345 20.3622C32.949 20.5867 33.0833 20.8933 33.0833 21.2356V23.3333L33.3303 23.4044C33.3498 23.4111 33.3693 23.42 33.3867 23.4333C33.4473 23.48 33.534 23.5489 33.6445 23.6333C33.7311 23.7044 33.8243 23.7911 33.937 23.88C34.1602 24.0645 34.4267 24.3022 34.7192 24.5755C34.7972 24.6445 34.873 24.7155 34.9423 24.7867C35.3193 25.1466 35.7418 25.5689 36.1448 26.0356C36.2575 26.1666 36.368 26.3 36.4806 26.44C36.5934 26.5822 36.7125 26.7222 36.8165 26.8622C36.953 27.0489 37.1003 27.2422 37.2282 27.4445C37.2888 27.54 37.3582 27.6378 37.4167 27.7333C37.5813 27.9889 37.7265 28.2534 37.8652 28.5178C37.9237 28.64 37.9843 28.7733 38.0363 28.9044C38.1901 29.2578 38.3115 29.6178 38.3895 29.9778C38.4133 30.0556 38.4306 30.14 38.4393 30.2156V30.2333C38.4653 30.34 38.474 30.4534 38.4827 30.5689C38.5173 30.9378 38.5 31.3067 38.422 31.6778C38.3895 31.8356 38.3461 31.9844 38.2942 32.1422C38.2422 32.2933 38.1901 32.4511 38.123 32.6C37.993 32.9089 37.8392 33.2178 37.6572 33.5067C37.5987 33.6133 37.5293 33.7267 37.46 33.8333C37.3842 33.9466 37.3061 34.0534 37.2368 34.1578C37.1415 34.2911 37.0397 34.4311 36.9356 34.5555C36.8425 34.6867 36.7472 34.8178 36.6432 34.9333C36.498 35.1089 36.3593 35.2756 36.2142 35.4356C36.1275 35.54 36.0343 35.6467 35.939 35.7422C35.8458 35.8489 35.7505 35.9444 35.6638 36.0333C35.5187 36.1822 35.3973 36.2978 35.2955 36.3933L35.0572 36.6178C35.0225 36.6489 34.977 36.6667 34.9293 36.6667H33.0833V39.0956H35.406C35.926 39.0956 36.42 38.9067 36.8187 38.56C36.9551 38.4378 37.551 37.9089 38.2552 37.1111C38.279 37.0845 38.3093 37.0645 38.344 37.0556L44.7595 35.1533C44.8787 35.1178 45 35.2111 45 35.34Z" fill="white"/>
<defs>
<filter id="filter0_ii_70_47" x="0" y="0" width="64" height="64" filterUnits="userSpaceOnUse" color-interpolation-filters="sRGB">
<feFlood flood-opacity="0" result="BackgroundImageFix"/>
<feBlend mode="normal" in="SourceGraphic" in2="BackgroundImageFix" result="shape"/>
<feColorMatrix in="SourceAlpha" type="matrix" values="0 0 0 0 0 0 0 0 0 0 0 0 0 0 0 0 0 0 127 0" result="hardAlpha"/>
<feOffset dx="8" dy="8"/>
<feComposite in2="hardAlpha" operator="arithmetic" k2="-1" k3="1"/>
<feColorMatrix type="matrix" values="0 0 0 0 0.309762 0 0 0 0 0.61 0 0 0 0 0.910238 0 0 0 1 0"/>
<feBlend mode="normal" in2="shape" result="effect1_innerShadow_70_47"/>
<feColorMatrix in="SourceAlpha" type="matrix" values="0 0 0 0 0 0 0 0 0 0 0 0 0 0 0 0 0 0 127 0" result="hardAlpha"/>
<feOffset dx="-8" dy="-8"/>
<feComposite in2="hardAlpha" operator="arithmetic" k2="-1" k3="1"/>
<feColorMatrix type="matrix" values="0 0 0 0 0.0989682 0 0 0 0 0.43 0 0 0 0 0.761032 0 0 0 1 0"/>
<feBlend mode="normal" in2="effect1_innerShadow_70_47" result="effect2_innerShadow_70_47"/>
</filter>
</defs>
</svg>
